<svg width="654" height="374" viewBox="0 0 654 374" fill="none" xmlns="http://www.w3.org/2000/svg">
<path d="M146.807 238.457C76.0715 238.457 18.7146 181.102 18.7146 110.354C18.7146 63.3596 44.0399 22.2876 81.7758 0C34.8121 21.2993 2.13318 68.5396 2.13318 123.468C2.13318 198.312 62.8022 259 137.654 259C209.057 259 267.531 203.751 272.759 133.678C261.786 193.282 209.582 238.457 146.807 238.457Z" fill="#6AC045"/>
<path d="M173.768 209.027C192.61 209.027 207.885 193.751 207.885 174.907C207.885 156.063 192.61 140.787 173.768 140.787C154.925 140.787 139.651 156.063 139.651 174.907C139.651 193.751 154.925 209.027 173.768 209.027Z" fill="#6AC045"/>
<path d="M84.7336 185.785C103.583 185.785 118.864 170.503 118.864 151.651C118.864 132.8 103.583 117.518 84.7336 117.518C65.8838 117.518 50.603 132.8 50.603 151.651C50.603 170.503 65.8838 185.785 84.7336 185.785Z" fill="#6AC045"/>
<path d="M98.5821 97.7452C117.432 97.7452 132.713 82.4632 132.713 63.6118C132.713 44.7604 117.432 29.4783 98.5821 29.4783C79.7323 29.4783 64.4515 44.7604 64.4515 63.6118C64.4515 82.4632 79.7323 97.7452 98.5821 97.7452Z" fill="#6AC045"/>
<path d="M139.637 130.4C146.743 130.4 152.504 124.638 152.504 117.531C152.504 110.425 146.743 104.663 139.637 104.663C132.531 104.663 126.77 110.425 126.77 117.531C126.77 124.638 132.531 130.4 139.637 130.4Z" fill="#6AC045"/>
<path d="M263.19 208.222L277.086 134.639L242.049 27.8834H283.254L302.248 97.3772L347.726 27.8834H393.736L315.892 133.842L301.71 202.279L263.19 208.222Z" fill="#6AC045"/>
<path d="M426.639 61.6011H360.927L386.586 27.8902H534.347C534.347 27.8902 509.104 43.512 505.396 61.6011H465.18L437.619 202.279L399.106 199.314L426.639 61.6011Z" fill="#6AC045"/>
<path d="M501.804 166.476C512.498 172.889 527.764 177.981 544.352 177.981C559.325 177.981 572.969 171.022 572.969 156.845C572.969 146.689 565.213 139.996 548.618 131.436C529.352 121.001 511.162 107.09 511.162 83.5411C511.162 47.1448 543.016 24.9458 582.326 24.9458C604.271 24.9458 617.111 29.7577 624.86 34.0312L612.824 66.1404C606.929 62.937 594.096 57.8524 579.13 58.1182C561.192 58.1182 551.815 67.2173 551.815 77.1275C551.815 87.5488 562.773 93.9761 578.04 102.537C599.985 114.042 613.888 128.757 613.888 150.159C613.888 190.29 580.704 210.881 540.576 210.881C515.442 210.881 497.511 204.474 488.951 198.04L501.804 166.476Z" fill="#6AC045"/>
<path d="M153.261 258.1C161.057 258.591 361.513 210.874 559.55 259C559.55 259 444.08 217.192 302.132 230.012C302.132 230.012 385.196 208.222 566.958 240.836C566.958 240.836 385.946 183.808 217.221 233.148C192.312 239.207 145.478 257.616 153.261 258.1Z" fill="#6AC045"/>
<path d="M228.688 270.75C231.479 270.75 234.354 271.125 237.312 271.875C240.271 272.583 242.979 273.521 245.438 274.688C247.896 275.812 249.917 277.083 251.5 278.5C253.083 279.917 253.875 281.292 253.875 282.625C253.875 283.292 253.583 284.042 253 284.875C252.417 285.667 251.708 286.438 250.875 287.188C250.042 287.896 249.125 288.5 248.125 289C247.167 289.458 246.312 289.688 245.562 289.688C244.562 289.688 243.438 289.271 242.188 288.438C240.979 287.604 239.625 286.688 238.125 285.688C236.667 284.646 235.062 283.708 233.312 282.875C231.562 282.042 229.667 281.625 227.625 281.625C226.292 281.625 225.188 281.958 224.312 282.625C223.479 283.25 223.062 284.146 223.062 285.312C223.062 286.354 223.562 287.417 224.562 288.5C225.562 289.542 226.875 290.625 228.5 291.75C230.167 292.875 232.042 294.062 234.125 295.312C236.208 296.562 238.333 297.896 240.5 299.312C242.708 300.729 244.854 302.271 246.938 303.938C249.021 305.604 250.875 307.417 252.5 309.375C254.167 311.333 255.5 313.479 256.5 315.812C257.5 318.104 258 320.604 258 323.312C258 325.646 257.583 327.771 256.75 329.688C255.917 331.604 254.729 333.25 253.188 334.625C251.646 336 249.812 337.062 247.688 337.812C245.562 338.562 243.229 338.938 240.688 338.938C237.479 338.938 234.521 338.438 231.812 337.438C229.104 336.479 226.771 335.146 224.812 333.438C222.854 331.729 221.312 329.688 220.188 327.312C219.104 324.938 218.562 322.333 218.562 319.5C218.562 315.833 219.208 313.167 220.5 311.5C221.833 309.833 223.917 309 226.75 309C228.5 309 229.896 309.333 230.938 310C231.979 310.667 232.5 311.479 232.5 312.438C232.5 312.938 232.417 313.458 232.25 314C232.083 314.5 231.896 315.042 231.688 315.625C231.521 316.167 231.354 316.75 231.188 317.375C231.062 318 231 318.625 231 319.25C231 320.333 231.25 321.375 231.75 322.375C232.25 323.375 232.917 324.25 233.75 325C234.625 325.792 235.625 326.417 236.75 326.875C237.875 327.333 239.062 327.562 240.312 327.562C243.646 327.562 245.312 326.188 245.312 323.438C245.312 321.271 244.458 319.229 242.75 317.312C241.042 315.354 238.896 313.458 236.312 311.625C233.729 309.75 230.938 307.875 227.938 306C224.979 304.125 222.208 302.167 219.625 300.125C217.042 298.083 214.896 295.917 213.188 293.625C211.479 291.292 210.625 288.771 210.625 286.062C210.625 283.812 211.083 281.75 212 279.875C212.958 278 214.25 276.396 215.875 275.062C217.5 273.688 219.396 272.625 221.562 271.875C223.771 271.125 226.146 270.75 228.688 270.75ZM269.625 261.25C268.417 261.25 267.271 261.083 266.188 260.75C265.146 260.375 264.229 259.875 263.438 259.25C262.688 258.583 262.083 257.812 261.625 256.938C261.167 256.062 260.938 255.104 260.938 254.062C260.938 252.312 261.625 250.896 263 249.812C264.417 248.729 266.292 248.188 268.625 248.188C269.708 248.188 270.75 248.396 271.75 248.812C272.75 249.188 273.625 249.708 274.375 250.375C275.167 251.042 275.792 251.833 276.25 252.75C276.708 253.625 276.938 254.542 276.938 255.5C276.938 257.292 276.271 258.708 274.938 259.75C273.646 260.75 271.875 261.25 269.625 261.25ZM261.062 280.312C261.062 278.854 261.688 277.667 262.938 276.75C264.229 275.792 265.917 275.312 268 275.312C271.75 275.312 273.75 276.604 274 279.188C274.167 280.979 274.333 283 274.5 285.25C274.708 287.5 274.896 289.896 275.062 292.438C275.271 294.938 275.438 297.542 275.562 300.25C275.729 302.917 275.875 305.562 276 308.188C276.125 310.771 276.229 313.271 276.312 315.688C276.396 318.104 276.438 320.312 276.438 322.312C276.438 324.396 275.688 325.958 274.188 327C272.729 328.042 270.583 328.562 267.75 328.562C266.458 328.562 265.438 328.25 264.688 327.625C263.979 327.042 263.625 326.167 263.625 325C263.625 319.25 263.479 313.875 263.188 308.875C262.938 303.833 262.646 299.354 262.312 295.438C262.021 291.521 261.729 288.271 261.438 285.688C261.188 283.062 261.062 281.271 261.062 280.312ZM293.562 327.688C293.271 322.146 292.792 317.042 292.125 312.375C291.5 307.667 290.833 303.562 290.125 300.062C289.458 296.562 288.854 293.729 288.312 291.562C287.812 289.396 287.562 288.042 287.562 287.5C287.562 286.708 287.854 285.938 288.438 285.188C289.062 284.438 289.833 283.792 290.75 283.25C291.667 282.667 292.646 282.208 293.688 281.875C294.771 281.542 295.75 281.375 296.625 281.375C297.333 281.375 297.938 281.5 298.438 281.75C298.979 282 299.354 282.417 299.562 283C299.771 283.708 299.958 284.458 300.125 285.25C300.333 286 300.542 286.917 300.75 288C301 289.542 301.333 290.312 301.75 290.312C302.208 290.312 302.729 289.625 303.312 288.25C304.146 286.333 305.042 284.75 306 283.5C306.958 282.25 307.979 281.271 309.062 280.562C310.188 279.812 311.333 279.292 312.5 279C313.708 278.708 314.958 278.562 316.25 278.562C320.167 278.562 323.479 280.104 326.188 283.188C328.938 286.271 331.083 290.729 332.625 296.562C332.833 297.229 333.021 297.667 333.188 297.875C333.354 298.042 333.542 298.125 333.75 298.125C333.958 298.125 334.167 298.042 334.375 297.875C334.625 297.667 334.854 297.271 335.062 296.688C336.062 293.979 337.229 291.688 338.562 289.812C339.896 287.896 341.271 286.354 342.688 285.188C344.146 283.979 345.625 283.104 347.125 282.562C348.625 282.021 350.062 281.75 351.438 281.75C353.979 281.75 356.271 282.688 358.312 284.562C360.396 286.396 362.229 289.25 363.812 293.125C365.438 296.958 366.833 301.833 368 307.75C369.208 313.625 370.208 320.604 371 328.688C371 330.938 370.312 332.5 368.938 333.375C367.562 334.292 365.688 334.75 363.312 334.75C361.771 334.75 360.562 334.417 359.688 333.75C358.812 333.083 358.312 332.208 358.188 331.125C357.646 325.333 357.042 320.188 356.375 315.688C355.75 311.146 355.062 307.333 354.312 304.25C353.562 301.125 352.729 298.75 351.812 297.125C350.938 295.5 349.958 294.688 348.875 294.688C348.333 294.688 347.646 295.083 346.812 295.875C346.021 296.667 345.167 298.125 344.25 300.25C343.333 302.333 342.375 305.208 341.375 308.875C340.375 312.5 339.417 317.146 338.5 322.812C338.25 324.396 337.479 325.604 336.188 326.438C334.938 327.271 333.396 327.688 331.562 327.688C329.438 327.688 327.958 327.354 327.125 326.688C326.333 326.021 325.896 324.896 325.812 323.312C325.646 320.562 325.354 317.833 324.938 315.125C324.562 312.375 324.083 309.771 323.5 307.312C322.917 304.812 322.271 302.521 321.562 300.438C320.854 298.312 320.104 296.479 319.312 294.938C318.521 293.354 317.708 292.125 316.875 291.25C316.042 290.375 315.229 289.938 314.438 289.938C313.396 289.938 312.375 290.667 311.375 292.125C310.417 293.583 309.542 295.646 308.75 298.312C308 300.979 307.396 304.188 306.938 307.938C306.479 311.688 306.25 315.875 306.25 320.5C306.25 321.292 306.271 322.083 306.312 322.875C306.354 323.625 306.375 324.417 306.375 325.25C306.375 326.5 306.167 327.521 305.75 328.312C305.375 329.104 304.812 329.729 304.062 330.188C303.354 330.646 302.521 330.958 301.562 331.125C300.604 331.292 299.562 331.375 298.438 331.375C297.396 331.375 296.562 331.292 295.938 331.125C295.312 331 294.833 330.792 294.5 330.5C294.167 330.208 293.938 329.812 293.812 329.312C293.688 328.854 293.604 328.312 293.562 327.688ZM372.812 281.375C372.812 279.75 373.542 278.521 375 277.688C376.458 276.812 378.542 276.375 381.25 276.375C381.875 276.375 382.438 276.458 382.938 276.625C383.438 276.792 383.875 277.125 384.25 277.625C384.667 278.083 385.042 278.729 385.375 279.562C385.708 280.396 386.042 281.458 386.375 282.75C386.708 284.208 387.042 284.938 387.375 284.938C387.667 284.938 388.021 284.333 388.438 283.125C389.188 280.75 390.167 278.688 391.375 276.938C392.625 275.146 394.021 273.667 395.562 272.5C397.104 271.292 398.771 270.396 400.562 269.812C402.396 269.229 404.312 268.938 406.312 268.938C410.354 268.938 414.125 269.708 417.625 271.25C421.125 272.75 424.146 274.854 426.688 277.562C429.229 280.229 431.229 283.396 432.688 287.062C434.146 290.688 434.875 294.625 434.875 298.875C434.875 303.375 434.083 307.542 432.5 311.375C430.958 315.208 428.792 318.521 426 321.312C423.208 324.062 419.875 326.208 416 327.75C412.167 329.333 407.958 330.125 403.375 330.125L400.188 330C398.312 330 397.375 331.062 397.375 333.188L400.562 361.875C400.521 362.583 400.271 363.229 399.812 363.812C399.396 364.438 398.812 364.979 398.062 365.438C397.354 365.896 396.5 366.25 395.5 366.5C394.542 366.75 393.542 366.875 392.5 366.875C389.5 366.875 387.875 365.896 387.625 363.938C386.75 356.354 385.771 349.146 384.688 342.312C383.646 335.479 382.562 329.125 381.438 323.25C380.354 317.333 379.292 311.958 378.25 307.125C377.208 302.292 376.271 298.083 375.438 294.5C374.646 290.917 374.021 288 373.562 285.75C373.062 283.5 372.812 282.042 372.812 281.375ZM393.125 297.875C393.125 300.583 393.229 303.271 393.438 305.938C393.646 308.562 393.979 311.417 394.438 314.5C394.688 316.375 395.708 317.438 397.5 317.688C398.583 317.938 399.792 318.188 401.125 318.438C402.5 318.646 403.646 318.75 404.562 318.75C407.229 318.75 409.646 318.354 411.812 317.562C413.979 316.771 415.833 315.646 417.375 314.188C418.917 312.688 420.104 310.917 420.938 308.875C421.771 306.833 422.188 304.562 422.188 302.062C422.188 299.021 421.771 296.188 420.938 293.562C420.104 290.896 418.958 288.583 417.5 286.625C416.083 284.667 414.396 283.125 412.438 282C410.521 280.875 408.438 280.312 406.188 280.312C404.229 280.312 402.438 280.75 400.812 281.625C399.229 282.458 397.854 283.646 396.688 285.188C395.562 286.688 394.688 288.521 394.062 290.688C393.438 292.854 393.125 295.25 393.125 297.875ZM438.5 253.812C438.5 251.646 439.125 250.104 440.375 249.188C441.625 248.271 443.688 247.812 446.562 247.812C447.562 247.812 448.438 247.917 449.188 248.125C449.938 248.333 450.562 248.688 451.062 249.188C451.562 249.646 451.958 250.292 452.25 251.125C452.583 251.917 452.854 252.938 453.062 254.188C453.604 257.896 454.146 261.792 454.688 265.875C455.271 269.917 455.812 273.958 456.312 278C456.854 282 457.354 285.917 457.812 289.75C458.271 293.542 458.667 297.083 459 300.375C459.375 303.625 459.646 306.521 459.812 309.062C460.021 311.562 460.125 313.542 460.125 315C460.125 316.5 459.979 317.771 459.688 318.812C459.438 319.854 458.979 320.688 458.312 321.312C457.688 321.938 456.854 322.396 455.812 322.688C454.812 322.938 453.562 323.062 452.062 323.062C450.604 323.062 449.438 322.688 448.562 321.938C447.729 321.188 447.312 320.042 447.312 318.5C447.312 316.917 447.188 314.812 446.938 312.188C446.688 309.521 446.354 306.562 445.938 303.312C445.521 300.062 445.042 296.604 444.5 292.938C444 289.271 443.458 285.646 442.875 282.062C442.333 278.479 441.792 275.042 441.25 271.75C440.75 268.417 440.292 265.479 439.875 262.938C439.458 260.354 439.125 258.25 438.875 256.625C438.625 254.958 438.5 254.021 438.5 253.812ZM523.312 311.312C524.521 310.271 525.708 309.75 526.875 309.75C527.542 309.75 528.146 309.917 528.688 310.25C529.229 310.583 529.833 311.104 530.5 311.812C531.125 312.771 531.562 313.562 531.812 314.188C532.104 314.771 532.25 315.354 532.25 315.938C532.25 317.188 531.625 318.375 530.375 319.5C528.375 321.167 526.208 322.667 523.875 324C521.542 325.292 519.104 326.396 516.562 327.312C514.021 328.229 511.396 328.917 508.688 329.375C505.979 329.875 503.292 330.125 500.625 330.125C497.25 330.125 494.083 329.688 491.125 328.812C488.167 327.979 485.521 326.771 483.188 325.188C480.896 323.604 478.958 321.708 477.375 319.5C475.792 317.25 474.667 314.729 474 311.938C473.625 310.771 473.271 310.021 472.938 309.688C472.646 309.312 472.146 309.125 471.438 309.125C469.896 309.125 468.708 308.75 467.875 308C467.042 307.25 466.625 306.167 466.625 304.75C466.625 304.167 466.667 303.792 466.75 303.625L466.875 302.375C467.083 300.875 467.479 299.792 468.062 299.125C468.688 298.458 469.646 298.125 470.938 298.125H471.875C473.625 298.125 474.854 297.312 475.562 295.688C476.854 292.812 478.5 290.188 480.5 287.812C482.5 285.438 484.75 283.417 487.25 281.75C489.75 280.042 492.417 278.729 495.25 277.812C498.125 276.854 501.042 276.375 504 276.375C507.083 276.375 509.958 276.833 512.625 277.75C515.333 278.625 517.688 279.854 519.688 281.438C521.688 283.021 523.25 284.875 524.375 287C525.542 289.125 526.125 291.417 526.125 293.875C526.125 295.583 525.792 297.146 525.125 298.562C524.458 299.979 523.5 301.229 522.25 302.312C521 303.354 519.479 304.208 517.688 304.875C515.938 305.542 513.938 305.979 511.688 306.188L490 308.375C489.167 308.375 488.479 308.583 487.938 309C487.438 309.417 487.188 309.979 487.188 310.688C487.188 311.771 487.583 312.812 488.375 313.812C489.208 314.812 490.292 315.708 491.625 316.5C493 317.25 494.562 317.854 496.312 318.312C498.104 318.771 499.938 319 501.812 319C503.604 319 505.438 318.833 507.312 318.5C509.229 318.125 511.104 317.604 512.938 316.938C514.812 316.271 516.625 315.479 518.375 314.562C520.125 313.604 521.771 312.521 523.312 311.312ZM509.375 295.188C510 295.062 510.542 294.771 511 294.312C511.458 293.812 511.688 293.208 511.688 292.5C511.688 291.875 511.458 291.292 511 290.75C510.542 290.208 509.917 289.729 509.125 289.312C508.333 288.854 507.417 288.5 506.375 288.25C505.333 288 504.229 287.875 503.062 287.875C501.354 287.875 499.604 288.125 497.812 288.625C496.021 289.125 494.396 289.792 492.938 290.625C491.479 291.417 490.292 292.312 489.375 293.312C488.458 294.271 488 295.229 488 296.188C488 297.146 488.583 297.625 489.75 297.625C490.458 297.625 491.604 297.542 493.188 297.375C494.771 297.208 496.521 297.021 498.438 296.812C500.354 296.562 502.292 296.292 504.25 296C506.208 295.708 507.917 295.438 509.375 295.188Z" fill="#CDCDCD"/>
</svg>
